<svg width="100" height="100" viewBox="0 0 100 100" fill="none" xmlns="http://www.w3.org/2000/svg">
<path d="M60.2078 65.0577C60.575 64.391 60.9435 63.7238 61.3132 63.0559C61.6779 62.3952 62.2129 61.8443 62.8627 61.4605C63.5124 61.0767 64.2532 60.8741 65.0078 60.8737H88.3476C86.0599 56.7243 83.7709 52.5749 81.4806 48.4255H58.9008C58.1618 48.4252 57.4362 48.6232 56.7998 48.999C56.1634 49.3747 55.6396 49.9144 55.283 50.5617L54.1545 52.6076L53.0317 54.6439C52.6721 55.2959 52.144 55.8394 51.5026 56.2175C50.8611 56.5957 50.1298 56.7946 49.3852 56.7934H14.2151L7.34619 69.2378H55.4903C56.2198 69.2377 56.9359 69.0417 57.5639 68.6704C58.1918 68.299 58.7086 67.7658 59.0601 67.1266C59.4439 66.437 59.8277 65.7454 60.2116 65.0519" fill="#037662"/>
<path d="M51.015 48.4184L52.1434 46.3687C52.5005 45.7219 53.0245 45.1827 53.6608 44.8074C54.2971 44.432 55.0224 44.2342 55.7612 44.2345H79.1664C76.8633 40.0493 74.5602 35.8666 72.2571 31.6865H49.7099C48.9624 31.6868 48.2285 31.8873 47.5848 32.2674C46.9412 32.6475 46.4111 33.1931 46.0499 33.8476C45.6776 34.5219 45.3065 35.1962 44.9368 35.8705L43.8102 37.9145C43.4521 38.563 42.9267 39.1038 42.2888 39.4805C41.6508 39.8572 40.9236 40.056 40.1828 40.0563H23.4413C21.1382 44.2403 18.8313 48.4229 16.5205 52.6043H46.2438C46.9888 52.6043 47.7202 52.4043 48.3617 52.0251C49.0031 51.646 49.531 51.1017 49.8903 50.449L51.0111 48.4204" fill="#037662"/>
<path d="M41.8008 31.6782L42.912 29.6611C43.2744 29.0046 43.8061 28.4574 44.4518 28.0763C45.0976 27.6952 45.8337 27.4942 46.5835 27.4942H69.8677C69.8756 27.4941 69.8833 27.492 69.8901 27.4881C69.8969 27.4842 69.9026 27.4786 69.9066 27.4719C69.9106 27.4652 69.9128 27.4575 69.9131 27.4497C69.9133 27.4418 69.9116 27.434 69.908 27.4271L64.2559 17.1822C63.8911 16.5212 63.3558 15.9701 62.7056 15.5863C62.0555 15.2025 61.3143 15 60.5594 15H39.7299C38.9811 14.9998 38.2459 15.2006 37.6011 15.5813C36.9563 15.9621 36.4255 16.509 36.0641 17.1649C32.6377 23.3756 29.2119 29.5862 25.7867 35.7969C25.7829 35.8037 25.7811 35.8114 25.7813 35.8192C25.7815 35.827 25.7837 35.8346 25.7878 35.8412C25.7919 35.8478 25.7977 35.8533 25.8046 35.8569C25.8114 35.8606 25.8192 35.8624 25.827 35.8621H37.0238C37.7714 35.8625 38.5055 35.6622 39.1493 35.282C39.7931 34.9019 40.323 34.3559 40.6838 33.7011L41.7988 31.6782" fill="#037662"/>
<path d="M98.7946 79.7995L90.6628 65.0502H68.1828C67.417 65.0501 66.6651 65.2554 66.0056 65.6446C65.346 66.0338 64.8028 66.5927 64.4326 67.2631L63.3463 69.2341C62.9625 69.9238 62.5831 70.6121 62.2082 71.2992C61.8531 71.9396 61.3329 72.4731 60.7017 72.8444C60.0706 73.2156 59.3515 73.4111 58.6193 73.4104H5.03601L1.51997 79.788C1.1689 80.4244 0.98982 81.1414 1.00045 81.8682C1.01107 82.5949 1.21106 83.3063 1.58059 83.9322C1.95012 84.5581 2.47643 85.0768 3.10764 85.4372C3.73885 85.7976 4.45315 85.9871 5.17998 85.9871H95.1251C95.8536 85.9872 96.5695 85.7974 97.2022 85.4363C97.835 85.0753 98.3626 84.5555 98.7331 83.9282C99.1036 83.301 99.3041 82.588 99.3149 81.8596C99.3257 81.1312 99.1464 80.4125 98.7946 79.7746" fill="#037662"/>
</svg>
